<svg xmlns="http://www.w3.org/2000/svg" width="37" height="30" viewBox="0 0 37 30" fill="none">
<path d="M8.92807 11.8712C11.0969 11.8712 12.8609 9.21359 12.8609 5.94679C12.8609 2.68079 11.0969 0.0231934 8.92807 0.0231934C6.75927 0.0231934 4.99487 2.68079 4.99487 5.94679C4.99487 9.21359 6.75967 11.8712 8.92807 11.8712Z" fill="white"/>
<path d="M27.6424 11.8712C29.8112 11.8712 31.5756 9.21359 31.5756 5.94679C31.5756 2.68079 29.8112 0.0231934 27.6424 0.0231934C25.474 0.0231934 23.71 2.68079 23.71 5.94679C23.71 9.21359 25.4744 11.8712 27.6424 11.8712Z" fill="white"/>
<path d="M35.7179 16.612C35.4687 16.3988 35.1253 16.3745 34.8617 16.5559C30.6311 19.4467 24.8916 21.4571 18.6998 22.2174C12.5095 22.9775 6.45377 22.4153 1.64918 20.6343C1.34936 20.5232 1.02114 20.6288 0.832415 20.8958C0.642638 21.1633 0.633297 21.5352 0.808942 21.8216C3.41486 26.0761 11.0299 28.3353 19.3263 27.3166C27.626 26.2976 34.4686 22.262 35.9657 17.5041C36.0661 17.1842 35.9663 16.8253 35.7179 16.612Z" fill="white"/>
</svg>